<svg xmlns="http://www.w3.org/2000/svg" xmlns:xlink="http://www.w3.org/1999/xlink" width="1080" zoomAndPan="magnify" viewBox="0 0 810 809.999993" height="1080" preserveAspectRatio="xMidYMid meet" version="1.0"><defs><clipPath id="3b181917fa"><path d="M 11 13 L 799 13 L 799 803.929688 L 11 803.929688 Z M 11 13 " clip-rule="nonzero"/></clipPath></defs><g clip-path="url(#3b181917fa)"><path fill="#000000" d="M 792.371094 500.558594 C 788.191406 498.390625 783.078125 499.164062 779.671875 502.417969 C 706.582031 574.117188 577.121094 584.957031 480.335938 571.175781 C 424.898438 563.277344 368.527344 526.730469 333.375 475.78125 C 303.488281 432.574219 273.292969 357.777344 298.222656 246.121094 C 321.609375 141.746094 386.183594 70.351562 485.136719 39.382812 C 489.9375 37.832031 493.1875 33.1875 492.722656 28.074219 C 492.257812 22.964844 488.386719 18.9375 483.277344 18.320312 C 386.648438 5.929688 299.617188 20.023438 224.359375 60.132812 C 162.105469 93.425781 108.835938 143.601562 66.25 209.265625 C 31.40625 263.15625 12.515625 330.675781 11.738281 404.699219 C 10.964844 474.386719 26.761719 545.3125 56.339844 604.160156 C 115.183594 721.082031 233.496094 795.570312 372.863281 803.15625 C 382.15625 803.621094 391.136719 803.929688 399.964844 803.929688 C 528.339844 803.929688 618.3125 752.828125 672.203125 708.382812 C 737.863281 654.335938 785.867188 579.074219 797.789062 512.015625 C 798.875 507.371094 796.550781 502.726562 792.371094 500.558594 Z M 658.574219 691.65625 C 603.910156 736.722656 510.066406 788.910156 374.105469 781.632812 C 242.476562 774.507812 130.980469 704.511719 75.695312 594.558594 C 15.765625 475.160156 19.328125 321.539062 84.523438 221.03125 C 141.199219 133.691406 243.25 35.820312 416.84375 35.820312 C 422.730469 35.820312 428.613281 35.972656 434.652344 36.128906 C 401.359375 52.078125 372.402344 73.449219 348.398438 99.933594 C 313.710938 138.027344 289.707031 185.570312 277.164062 241.476562 C 250.375 360.71875 283.359375 441.402344 315.566406 488.167969 C 354.746094 544.847656 415.140625 583.871094 477.394531 592.699219 C 537.476562 601.21875 597.253906 599.980469 650.675781 588.828125 C 697.132812 579.226562 736.46875 562.964844 768.214844 540.355469 C 752.109375 586.042969 717.574219 643.03125 658.574219 691.65625 Z M 658.574219 691.65625 " fill-opacity="1" fill-rule="nonzero"/></g></svg>